<?xml version="1.0" encoding="UTF-8" standalone="no"?>
<!DOCTYPE svg PUBLIC "-//W3C//DTD SVG 1.1//EN" "http://www.w3.org/Graphics/SVG/1.1/DTD/svg11.dtd">
<!-- Created with Vectornator (http://vectornator.io/) -->
<svg height="100%" stroke-miterlimit="10" style="fill-rule:nonzero;clip-rule:evenodd;stroke-linecap:round;stroke-linejoin:round;" version="1.1" viewBox="0 0 540 171.5" width="100%" xml:space="preserve" xmlns="http://www.w3.org/2000/svg" xmlns:vectornator="http://vectornator.io" xmlns:xlink="http://www.w3.org/1999/xlink">
<defs/>
<clipPath id="ArtboardFrame">
<rect height="171.5" width="540" x="0" y="0"/>
</clipPath>
<g clip-path="url(#ArtboardFrame)" id="Black_x5F_2.0" vectornator:layerName="Black_x5F_2.0" visibility="hidden">
<g opacity="1">
<path d="M513.01 143.89L149.37 143.96L210.87 27.23L462.65 27.23L476.93 0.15L197.95 0.15L183.7 27.23L183.79 27.23L122.35 143.96L122.22 143.96L107.68 171.5L539.96 171.25L539.96 171.23L540 171.23L540 54.23L513 54.23L513.01 143.89Z" fill="#000000" fill-rule="nonzero" opacity="1" stroke="none"/>
<path d="M143.95 0.15L54 171.23L81 171.23L171.02 0.2L143.95 0.15Z" fill="#000000" fill-rule="nonzero" opacity="1" stroke="none"/>
<path d="M264.42 79.18C264.42 70.48 257.95 64.47 248.02 64.47L228.7 64.47L228.7 110.67L240.02 110.67L240.02 93.43L251.8 110.68L265.97 110.68L253.5 93.51C260.34 91.81 264.42 87.27 264.42 79.18ZM249.1 84.5L240.02 84.5L240.02 74.1L248.8 74.1C251.34 74.1 253.34 76.49 253.34 79.18C253.33 81.88 251.64 84.5 249.1 84.5Z" fill="#000000" fill-rule="nonzero" opacity="1" stroke="none"/>
<path d="M285.83 110.68L298 110.68L300.23 105.91L318.48 105.91L320.79 110.68L332.96 110.68L310.32 62.94L308.32 62.94L285.83 110.68ZM309.31 86.11L314.62 97.81L303.76 97.81L309.15 86.11L309.31 86.11Z" fill="#000000" fill-rule="nonzero" opacity="1" stroke="none"/>
<path d="M400.79 110.68L400.79 64.48L390.39 64.48L378.54 89.43L366.76 64.48L356.21 64.48L356.21 110.68L367.53 110.68L367.53 89.96L377.61 112.22L379.46 112.22L389.55 90.12L389.55 110.68L400.79 110.68Z" fill="#000000" fill-rule="nonzero" opacity="1" stroke="none"/>
<path d="M426.51 64.48L426.51 110.68L437.75 110.68L437.75 94.05L445.83 94.05C454.38 94.05 460.84 87.89 460.84 79.27C460.84 71.49 455.3 64.49 445.83 64.49L426.51 64.49L426.51 64.48ZM449.3 78.95C449.3 81.65 447.68 84.34 444.76 84.34L437.75 84.34L437.75 74.1L444.76 74.1C447.76 74.1 449.3 76.41 449.3 78.95Z" fill="#000000" fill-rule="nonzero" opacity="1" stroke="none"/>
<path d="M510.06 30.92L499.03 30.92C499.6 30.14 500.23 29.36 500.8 28.53C506.88 20.37 506.88 20.37 508.55 17.56C510.06 14.91 510.73 12.41 510.73 9.6C510.73 3.83 507.56 0.4 502.31 0.4C499.19 0.4 496.49 1.7 494.98 3.99C493.89 5.55 493.52 7.21 493.52 11.01L498.56 11.01C498.56 8.83 498.66 7.99 499.03 7.21C499.65 5.91 500.8 5.18 502.2 5.18C504.38 5.18 505.53 6.69 505.53 9.55C505.53 14.18 504.18 16.47 493.15 30.92L493.15 35.6L510.05 35.6L510.05 30.92L510.06 30.92Z" fill="#000000" fill-rule="nonzero" opacity="1" stroke="none"/>
<path d="M514.17 30.03L519.21 30.03L519.21 30.03L519.21 35.59L519.21 35.59L514.17 35.59L514.17 35.59L514.17 30.03L514.17 30.03Z" fill="#000000" fill-rule="nonzero" opacity="1" stroke="none"/>
<path d="M538.24 3.72C536.78 1.59 534.34 0.39 531.37 0.39C528.35 0.39 525.91 1.59 524.45 3.72C523.15 5.7 522.63 8.04 522.63 11.94L522.63 24.58C522.63 28.48 523.15 30.82 524.45 32.8C525.91 34.93 528.35 36.13 531.37 36.13C534.33 36.13 536.78 34.93 538.24 32.8C539.54 30.82 540.06 28.54 540.06 24.58L540.06 11.94C540.06 7.99 539.54 5.7 538.24 3.72ZM535.02 25.67C535.02 28.11 534.92 28.74 534.4 29.73C533.83 30.77 532.74 31.34 531.38 31.34C529.98 31.34 528.88 30.77 528.31 29.73C527.79 28.74 527.69 28.07 527.69 25.67L527.69 10.85C527.69 8.41 527.79 7.78 528.31 6.79C528.88 5.75 529.97 5.18 531.38 5.18C532.73 5.18 533.82 5.75 534.4 6.79C534.92 7.78 535.02 8.4 535.02 10.85L535.02 25.67Z" fill="#000000" fill-rule="nonzero" opacity="1" stroke="none"/>
<path d="M45.15 85.44L0 171.23L27 171.23L72.14 85.46L45.15 85.44Z" fill="#000000" fill-rule="nonzero" opacity="1" stroke="none"/>
</g>
</g>
<g clip-path="url(#ArtboardFrame)" id="White_x5F_2.0" vectornator:layerName="White_x5F_2.0" visibility="hidden">
<g opacity="1">
<path d="M513.01 143.89L149.37 143.96L210.87 27.23L462.65 27.23L476.93 0.15L197.95 0.15L183.7 27.23L183.79 27.23L122.35 143.96L122.22 143.96L107.68 171.5L539.96 171.25L539.96 171.23L540 171.23L540 54.23L513 54.23L513.01 143.89Z" fill="#ffffff" fill-rule="nonzero" opacity="1" stroke="none"/>
<path d="M143.95 0.15L54 171.23L81 171.23L171.02 0.2L143.95 0.15Z" fill="#ffffff" fill-rule="nonzero" opacity="1" stroke="none"/>
<path d="M264.42 79.18C264.42 70.48 257.95 64.47 248.02 64.47L228.7 64.47L228.7 110.67L240.02 110.67L240.02 93.43L251.8 110.68L265.97 110.68L253.5 93.51C260.34 91.81 264.42 87.27 264.42 79.18ZM249.1 84.5L240.02 84.5L240.02 74.1L248.8 74.1C251.34 74.1 253.34 76.49 253.34 79.18C253.33 81.88 251.64 84.5 249.1 84.5Z" fill="#ffffff" fill-rule="nonzero" opacity="1" stroke="none"/>
<path d="M285.83 110.68L298 110.68L300.23 105.91L318.48 105.91L320.79 110.68L332.96 110.68L310.32 62.94L308.32 62.94L285.83 110.68ZM309.31 86.11L314.62 97.81L303.76 97.81L309.15 86.11L309.31 86.11Z" fill="#ffffff" fill-rule="nonzero" opacity="1" stroke="none"/>
<path d="M400.79 110.68L400.79 64.48L390.39 64.48L378.54 89.43L366.76 64.48L356.21 64.48L356.21 110.68L367.53 110.68L367.53 89.96L377.61 112.22L379.46 112.22L389.55 90.12L389.55 110.68L400.79 110.68Z" fill="#ffffff" fill-rule="nonzero" opacity="1" stroke="none"/>
<path d="M426.51 64.48L426.51 110.68L437.75 110.68L437.75 94.05L445.83 94.05C454.38 94.05 460.84 87.89 460.84 79.27C460.84 71.49 455.3 64.49 445.83 64.49L426.51 64.49L426.51 64.48ZM449.3 78.95C449.3 81.65 447.68 84.34 444.76 84.34L437.75 84.34L437.75 74.1L444.76 74.1C447.76 74.1 449.3 76.41 449.3 78.95Z" fill="#ffffff" fill-rule="nonzero" opacity="1" stroke="none"/>
<path d="M510.06 30.92L499.03 30.92C499.6 30.14 500.23 29.36 500.8 28.53C506.88 20.37 506.88 20.37 508.55 17.56C510.06 14.91 510.73 12.41 510.73 9.6C510.73 3.83 507.56 0.4 502.31 0.4C499.19 0.4 496.49 1.7 494.98 3.99C493.89 5.55 493.52 7.21 493.52 11.01L498.56 11.01C498.56 8.83 498.66 7.99 499.03 7.21C499.65 5.91 500.8 5.18 502.2 5.18C504.38 5.18 505.53 6.69 505.53 9.55C505.53 14.18 504.18 16.47 493.15 30.92L493.15 35.6L510.05 35.6L510.05 30.92L510.06 30.92Z" fill="#ffffff" fill-rule="nonzero" opacity="1" stroke="none"/>
<path d="M514.17 30.03L519.21 30.03L519.21 30.03L519.21 35.59L519.21 35.59L514.17 35.59L514.17 35.59L514.17 30.03L514.17 30.03Z" fill="#ffffff" fill-rule="nonzero" opacity="1" stroke="none"/>
<path d="M538.24 3.72C536.78 1.59 534.34 0.39 531.37 0.39C528.35 0.39 525.91 1.59 524.45 3.72C523.15 5.7 522.63 8.04 522.63 11.94L522.63 24.58C522.63 28.48 523.15 30.82 524.45 32.8C525.91 34.93 528.35 36.13 531.37 36.13C534.33 36.13 536.78 34.93 538.24 32.8C539.54 30.82 540.06 28.54 540.06 24.58L540.06 11.94C540.06 7.99 539.54 5.7 538.24 3.72ZM535.02 25.67C535.02 28.11 534.92 28.74 534.4 29.73C533.83 30.77 532.74 31.34 531.38 31.34C529.98 31.34 528.88 30.77 528.31 29.73C527.79 28.74 527.69 28.07 527.69 25.67L527.69 10.85C527.69 8.41 527.79 7.78 528.31 6.79C528.88 5.75 529.97 5.18 531.38 5.18C532.73 5.18 533.82 5.75 534.4 6.79C534.92 7.78 535.02 8.4 535.02 10.85L535.02 25.67Z" fill="#ffffff" fill-rule="nonzero" opacity="1" stroke="none"/>
<path d="M45.15 85.44L0 171.23L27 171.23L72.14 85.46L45.15 85.44Z" fill="#ffffff" fill-rule="nonzero" opacity="1" stroke="none"/>
</g>
</g>
<g id="Black" vectornator:layerName="Black" visibility="hidden">
<g opacity="1">
<path d="M540 54.23L513 54.23L513.01 143.89L149.37 143.96L210.87 27.23L462.65 27.23L476.93 0.15L197.95 0.15L183.7 27.23L183.79 27.23L122.35 143.96L122.22 143.96L107.68 171.5L539.96 171.25L539.96 171.23L540 171.23L540 54.23Z" fill="#000000" fill-rule="nonzero" opacity="1" stroke="none"/>
<path d="M143.95 0.15L54 171.23L81 171.23L171.02 0.2L143.95 0.15Z" fill="#000000" fill-rule="nonzero" opacity="1" stroke="none"/>
<path d="M264.42 79.18C264.42 70.48 257.95 64.47 248.02 64.47L228.7 64.47L228.7 110.67L240.02 110.67L240.02 93.43L251.8 110.68L265.97 110.68L253.5 93.51C260.34 91.81 264.42 87.27 264.42 79.18ZM249.1 84.5L240.02 84.5L240.02 74.1L248.8 74.1C251.34 74.1 253.34 76.49 253.34 79.18C253.33 81.88 251.64 84.5 249.1 84.5Z" fill="#000000" fill-rule="nonzero" opacity="1" stroke="none"/>
<path d="M285.83 110.68L298 110.68L300.23 105.91L318.48 105.91L320.79 110.68L332.96 110.68L310.32 62.94L308.32 62.94L285.83 110.68ZM309.31 86.11L314.62 97.81L303.76 97.81L309.15 86.11L309.31 86.11Z" fill="#000000" fill-rule="nonzero" opacity="1" stroke="none"/>
<path d="M400.79 110.68L400.79 64.48L390.39 64.48L378.54 89.43L366.76 64.48L356.21 64.48L356.21 110.68L367.53 110.68L367.53 89.96L377.61 112.22L379.46 112.22L389.55 90.12L389.55 110.68L400.79 110.68Z" fill="#000000" fill-rule="nonzero" opacity="1" stroke="none"/>
<path d="M426.51 64.48L426.51 110.68L437.75 110.68L437.75 94.05L445.83 94.05C454.38 94.05 460.84 87.89 460.84 79.27C460.84 71.49 455.3 64.49 445.83 64.49L426.51 64.49L426.51 64.48ZM449.3 78.95C449.3 81.65 447.68 84.34 444.76 84.34L437.75 84.34L437.75 74.1L444.76 74.1C447.76 74.1 449.3 76.41 449.3 78.95Z" fill="#000000" fill-rule="nonzero" opacity="1" stroke="none"/>
<path d="M45.15 85.44L0 171.23L27 171.23L72.14 85.46L45.15 85.44Z" fill="#000000" fill-rule="nonzero" opacity="1" stroke="none"/>
</g>
</g>
<g id="White" vectornator:layerName="White">
<g opacity="1">
<path d="M540 54.23L513 54.23L513.01 143.89L149.37 143.96L210.87 27.23L462.65 27.23L476.93 0.15L197.95 0.15L183.7 27.23L183.79 27.23L122.35 143.96L122.22 143.96L107.68 171.5L539.96 171.25L539.96 171.23L540 171.23L540 54.23Z" fill="#ffffff" fill-rule="nonzero" opacity="1" stroke="none"/>
<path d="M143.95 0.15L54 171.23L81 171.23L171.02 0.2L143.95 0.15Z" fill="#ffffff" fill-rule="nonzero" opacity="1" stroke="none"/>
<path d="M264.42 79.18C264.42 70.48 257.95 64.47 248.02 64.47L228.7 64.47L228.7 110.67L240.02 110.67L240.02 93.43L251.8 110.68L265.97 110.68L253.5 93.51C260.34 91.81 264.42 87.27 264.42 79.18ZM249.1 84.5L240.02 84.5L240.02 74.1L248.8 74.1C251.34 74.1 253.34 76.49 253.34 79.18C253.33 81.88 251.64 84.5 249.1 84.5Z" fill="#ffffff" fill-rule="nonzero" opacity="1" stroke="none"/>
<path d="M285.83 110.68L298 110.68L300.23 105.91L318.48 105.91L320.79 110.68L332.96 110.68L310.32 62.94L308.32 62.94L285.83 110.68ZM309.31 86.11L314.62 97.81L303.76 97.81L309.15 86.11L309.31 86.11Z" fill="#ffffff" fill-rule="nonzero" opacity="1" stroke="none"/>
<path d="M400.79 110.68L400.79 64.48L390.39 64.48L378.54 89.43L366.76 64.48L356.21 64.48L356.21 110.68L367.53 110.68L367.53 89.96L377.61 112.22L379.46 112.22L389.55 90.12L389.55 110.68L400.79 110.68Z" fill="#ffffff" fill-rule="nonzero" opacity="1" stroke="none"/>
<path d="M426.51 64.48L426.51 110.68L437.75 110.68L437.75 94.05L445.83 94.05C454.38 94.05 460.84 87.89 460.84 79.27C460.84 71.49 455.3 64.49 445.83 64.49L426.51 64.49L426.51 64.48ZM449.3 78.95C449.3 81.65 447.68 84.34 444.76 84.34L437.75 84.34L437.75 74.1L444.76 74.1C447.76 74.1 449.3 76.41 449.3 78.95Z" fill="#ffffff" fill-rule="nonzero" opacity="1" stroke="none"/>
<path d="M45.15 85.44L0 171.23L27 171.23L72.14 85.46L45.15 85.44Z" fill="#ffffff" fill-rule="nonzero" opacity="1" stroke="none"/>
</g>
</g>
</svg>
